<?xml version="1.0" encoding="utf-8"?>
<!-- Generator: Adobe Illustrator 22.0.1, SVG Export Plug-In . SVG Version: 6.00 Build 0)  -->
<svg version="1.1" id="Camada_1" xmlns="http://www.w3.org/2000/svg" xmlns:xlink="http://www.w3.org/1999/xlink" x="0px" y="0px"
	 viewBox="0 0 338 87.8" style="enable-background:new 0 0 338 87.8;" xml:space="preserve">
<style type="text/css">
	.st0{fill:#FFFFFF;}
</style>
<title>Ativo 1</title>
<path class="st0" d="M133.5,32.7c-1.2,0-2.3,0.1-3.5,0.3v9.7h3.3c3.8,0,6.1-2,6.1-5C139.4,34.7,137.1,32.7,133.5,32.7z"/>
<path class="st0" d="M101.9,33.1L101.9,33.1c-0.5,1.8-1,3.9-1.5,5.7l-2.4,7.5h7.9l-2.5-7.5C102.9,37,102.4,34.9,101.9,33.1z"/>
<path class="st0" d="M338,87.8V0H0v87.8H338z M186.5,61.4l-4.6,2.7l-4.6-2.6v-5.3l4.6-2.7l4.6,2.6V61.4z M201.9,63.6l-7,4.2
	l-7.2-4.1v-8.3l7.1-4.2l7.1,4.1V63.6z M285.1,27.9c2.9-0.1,5.9,0.4,8.6,1.5l-1.5,5.6c-2.3-1-4.7-1.4-7.2-1.3
	c-5.2-0.5-9.8,3.3-10.3,8.5c0,0.5-0.1,0.9,0,1.4c-0.5,5.1,3.3,9.7,8.4,10.1c0.5,0,0.9,0.1,1.4,0c1.2,0,2.3-0.1,3.4-0.4V47h-4.8v-5.5
	h11.6v16.4c-3.3,1.1-6.8,1.7-10.4,1.7c-4.6,0.3-9.1-1.2-12.6-4.2c-2.9-3-4.5-7.1-4.4-11.3C267.4,33.7,274.8,27.9,285.1,27.9z
	 M244.6,28.2h19V34h-11.9v7.1h11.1v5.7h-11.1v12.4h-7V28.2z M213,27.9h7v17.8c0,5.4,2.1,8.1,5.6,8.1c3.5,0,5.7-2.5,5.7-8.1V28.2h7
	l0,17.2c0,9.6-4.8,14.1-12.9,14.1c-8.1,0-12.4-4.4-12.4-14.2V27.9z M207.4,49.5l-6,3.4l-6-3.4v-6.9l6-3.4l6,3.4V49.5z M186,25.4
	l9.1-5.4l9.3,5.3V36l-9.2,5.4l-9.2-5.3V25.4z M172,31.6l5.7-3.4l5.7,3.3v6.6l-5.7,3.3l-5.7-3.3V31.6z M163.6,43.3l7.1-4.2l7.1,4.1
	v8.2l-7,4.1l-7.1-4V43.3z M124.4,29.1c2.8-0.5,5.6-0.7,8.5-0.7c3.3-0.3,6.7,0.6,9.4,2.5c1.8,1.6,2.7,3.8,2.6,6.2
	c0,3.5-2.3,6.6-5.6,7.6v0.1c2.4,1.1,4,3.3,4.3,5.9c0.7,2.9,1.5,5.7,2.5,8.6l-5.8,0c-0.9-2.3-1.6-4.8-2.1-7.2c-0.9-4-2.3-5.3-5.5-5.4
	H130v12.6h-5.5V29.1z M98.5,28.7h7.1l9.9,30.7h-6l-2.7-8.7h-9.7l-2.7,8.7h-5.8L98.5,28.7z M74.4,28.7H80v30.7h-5.6V28.7z M57.9,28.2
	c2.6-0.1,5.1,0.4,7.5,1.4L64.1,34c-1.9-0.8-3.9-1.2-6-1.2c-6.2,0-10.7,3.9-10.7,11.3c0,6.8,3.9,11,10.6,11c2.1,0,4.1-0.3,6.1-1.1
	l0.9,4.4c-2.5,1-5.2,1.5-8,1.4c-9.7,0-15.7-6.1-15.7-15.5C41.4,34.2,48.5,28.2,57.9,28.2z"/>
</svg>
